<svg width="24" height="24" viewBox="0 0 24 24" fill="none" xmlns="http://www.w3.org/2000/svg">
<path d="M2 5.75012C2 5.33591 2.33579 5.00012 2.75 5.00012H21.25C21.6642 5.00012 22 5.33591 22 5.75012C22 6.16434 21.6642 6.50012 21.25 6.50012H2.75C2.33579 6.50012 2 6.16434 2 5.75012Z" fill="black"/>
<path d="M2 12.2502C2 11.836 2.33579 11.5002 2.75 11.5002H21.25C21.6642 11.5002 22 11.836 22 12.2502C22 12.6645 21.6642 13.0002 21.25 13.0002H2.75C2.33579 13.0002 2 12.6645 2 12.2502Z" fill="black"/>
<path d="M2 18.7503C2 18.336 2.33579 18.0002 2.75001 18.0002H21.25C21.6642 18.0002 22 18.336 22 18.7503C22 19.1645 21.6642 19.5003 21.25 19.5003H2.75001C2.33579 19.5003 2 19.1645 2 18.7503Z" fill="black"/>
</svg>
