<svg width="32" height="32" viewBox="0 0 32 32" fill="none" xmlns="http://www.w3.org/2000/svg">
<g clip-path="url(#clip0_1_645)">
<path d="M33.52 6.77583C32.3333 7.30168 31.0585 7.65698 29.7183 7.81758C31.1011 6.99014 32.1357 5.68784 32.6289 4.1537C31.3297 4.9254 29.9078 5.46859 28.425 5.75966C27.4278 4.69499 26.1071 3.9893 24.6677 3.75217C23.2284 3.51503 21.7511 3.75972 20.4651 4.44825C19.1791 5.13677 18.1564 6.2306 17.5558 7.55992C16.9551 8.88923 16.8102 10.3797 17.1434 11.7998C14.5109 11.6676 11.9356 10.9834 9.58458 9.7915C7.23361 8.59961 5.15952 6.92671 3.49693 4.88136C2.92845 5.86199 2.60157 6.99896 2.60157 8.20983C2.60094 9.29989 2.86937 10.3733 3.38306 11.3347C3.89675 12.2961 4.63982 13.1159 5.54632 13.7213C4.49502 13.6878 3.46691 13.4038 2.54757 12.8927V12.978C2.54746 14.5068 3.0763 15.9887 4.04436 17.172C5.01242 18.3553 6.36006 19.1673 7.85863 19.4701C6.88337 19.734 5.86089 19.7729 4.8684 19.5838C5.29121 20.8993 6.1148 22.0496 7.22387 22.8738C8.33294 23.6979 9.67197 24.1546 11.0535 24.18C8.70827 26.021 5.81192 27.0197 2.83039 27.0153C2.30224 27.0154 1.77454 26.9846 1.25 26.9229C4.27643 28.8688 7.79942 29.9015 11.3974 29.8975C23.5772 29.8975 30.2356 19.8097 30.2356 11.0608C30.2356 10.7765 30.2285 10.4895 30.2157 10.2052C31.5108 9.26859 32.6288 8.10878 33.5172 6.78009L33.52 6.77583Z" fill="white"/>
</g>
<defs>
<clipPath id="clip0_1_645">
<rect width="32" height="32" fill="white"/>
</clipPath>
</defs>
</svg>
