<svg width="32" height="32" viewBox="0 0 32 32" fill="none" xmlns="http://www.w3.org/2000/svg">
<path d="M32 16.0884C31.9979 13.0125 31.1201 10.0016 29.4706 7.41192C27.821 4.82226 25.4687 2.7623 22.692 1.4758C19.9153 0.1893 16.8304 -0.269885 13.8024 0.152584C10.7745 0.575052 7.93018 1.86149 5.60611 3.85966C3.28205 5.85784 1.57551 8.4841 0.68845 11.4277C-0.198612 14.3712 -0.229066 17.5089 0.60069 20.4693C1.43045 23.4298 3.08568 26.0891 5.37052 28.1325C7.65535 30.176 10.4741 31.5181 13.4933 32V20.7304H9.49333V16.0884H13.4933V12.5331C13.4933 8.5083 15.8933 6.2678 19.5467 6.2678C20.7441 6.28527 21.9385 6.3929 23.12 6.58979V10.6146H21.1067C20.7625 10.5686 20.4125 10.6014 20.0827 10.7104C19.7529 10.8195 19.4518 11.002 19.2018 11.2445C18.9519 11.487 18.7596 11.783 18.6392 12.1107C18.5188 12.4384 18.4735 12.7891 18.5067 13.1369V16.1555H22.9333L22.2267 20.7975H18.5067V32C22.2705 31.3993 25.6976 29.4665 28.1713 26.5495C30.6449 23.6326 32.0026 19.923 32 16.0884Z" fill="white"/>
</svg>
