<svg width="32" height="32" viewBox="0 0 32 32" fill="none" xmlns="http://www.w3.org/2000/svg">
<path d="M16 2.88C20.2667 2.88 20.7733 2.88 22.4667 2.97333C23.4825 2.9888 24.4882 3.17821 25.44 3.53333C26.1308 3.7934 26.7582 4.19793 27.2801 4.71988C27.8021 5.24184 28.2066 5.86918 28.4667 6.56C28.8218 7.51185 29.0112 8.51751 29.0267 9.53333C29.1067 11.2267 29.12 11.7333 29.12 16C29.12 20.2667 29.12 20.7733 29.0267 22.4667C29.0112 23.4825 28.8218 24.4882 28.4667 25.44C28.2066 26.1308 27.8021 26.7582 27.2801 27.2801C26.7582 27.8021 26.1308 28.2066 25.44 28.4667C24.4882 28.8218 23.4825 29.0112 22.4667 29.0267C20.7733 29.1067 20.2667 29.12 16 29.12C11.7333 29.12 11.2267 29.12 9.53333 29.0267C8.51751 29.0112 7.51185 28.8218 6.56 28.4667C5.86918 28.2066 5.24184 27.8021 4.71988 27.2801C4.19793 26.7582 3.7934 26.1308 3.53333 25.44C3.17821 24.4882 2.9888 23.4825 2.97333 22.4667C2.89333 20.7733 2.88 20.2667 2.88 16C2.88 11.7333 2.88 11.2267 2.97333 9.53333C2.9888 8.51751 3.17821 7.51185 3.53333 6.56C3.7934 5.86918 4.19793 5.24184 4.71988 4.71988C5.24184 4.19793 5.86918 3.7934 6.56 3.53333C7.51185 3.17821 8.51751 2.9888 9.53333 2.97333C11.2267 2.89333 11.7333 2.88 16 2.88ZM16 0C11.6533 0 11.1067 -4.07298e-07 9.4 0.0933329C8.07365 0.120069 6.76155 0.372571 5.52 0.84C4.45418 1.24625 3.48627 1.8732 2.67974 2.67974C1.8732 3.48627 1.24625 4.45418 0.84 5.52C0.372571 6.76155 0.120069 8.07365 0.0933329 9.4C-4.07298e-07 11.1067 0 11.6533 0 16C0 20.3467 -4.07298e-07 20.8933 0.0933329 22.6C0.120069 23.9264 0.372571 25.2385 0.84 26.48C1.24625 27.5458 1.8732 28.5137 2.67974 29.3203C3.48627 30.1268 4.45418 30.7538 5.52 31.16C6.76155 31.6274 8.07365 31.8799 9.4 31.9067C11.1067 32 11.6533 32 16 32C20.3467 32 20.8933 32 22.6 31.9067C23.9264 31.8799 25.2385 31.6274 26.48 31.16C27.5458 30.7538 28.5137 30.1268 29.3203 29.3203C30.1268 28.5137 30.7538 27.5458 31.16 26.48C31.6201 25.2595 31.8724 23.9706 31.9067 22.6667C32 20.8933 32 20.3467 32 16C32 11.6533 32 11.1067 31.9067 9.4C31.8799 8.07365 31.6274 6.76155 31.16 5.52C30.7538 4.45418 30.1268 3.48627 29.3203 2.67974C28.5137 1.8732 27.5458 1.24625 26.48 0.84C25.2595 0.379935 23.9706 0.127554 22.6667 0.0933329C20.8933 -4.07298e-07 20.3467 0 16 0ZM16 7.78667C14.3756 7.78667 12.7876 8.26837 11.4369 9.17086C10.0862 10.0734 9.03352 11.3561 8.41187 12.8569C7.79022 14.3577 7.62757 16.0091 7.94448 17.6023C8.2614 19.1956 9.04364 20.659 10.1923 21.8077C11.341 22.9564 12.8044 23.7386 14.3977 24.0555C15.9909 24.3724 17.6423 24.2098 19.1431 23.5881C20.6439 22.9665 21.9266 21.9138 22.8291 20.5631C23.7316 19.2124 24.2133 17.6244 24.2133 16C24.2133 14.9214 24.0009 13.8534 23.5881 12.8569C23.1754 11.8604 22.5704 10.955 21.8077 10.1923C21.045 9.42962 20.1396 8.82463 19.1431 8.41187C18.1466 7.99911 17.0786 7.78667 16 7.78667ZM16 21.3333C14.9452 21.3333 13.914 21.0205 13.037 20.4345C12.1599 19.8485 11.4763 19.0155 11.0726 18.041C10.669 17.0664 10.5634 15.9941 10.7691 14.9595C10.9749 13.925 11.4829 12.9746 12.2288 12.2288C12.9746 11.4829 13.925 10.9749 14.9595 10.7691C15.9941 10.5634 17.0664 10.669 18.041 11.0726C19.0155 11.4763 19.8485 12.1599 20.4345 13.037C21.0205 13.914 21.3333 14.9452 21.3333 16C21.3333 17.4145 20.7714 18.771 19.7712 19.7712C18.771 20.7714 17.4145 21.3333 16 21.3333ZM24.5467 5.53333C24.1669 5.53333 23.7957 5.64594 23.48 5.85691C23.1642 6.06788 22.9181 6.36775 22.7728 6.71858C22.6275 7.06942 22.5895 7.45546 22.6636 7.82791C22.7376 8.20035 22.9205 8.54246 23.189 8.81098C23.4575 9.0795 23.7997 9.26236 24.1721 9.33644C24.5445 9.41053 24.9306 9.3725 25.2814 9.22718C25.6323 9.08186 25.9321 8.83577 26.1431 8.52003C26.3541 8.20429 26.4667 7.83307 26.4667 7.45333C26.4667 6.94412 26.2644 6.45576 25.9043 6.09569C25.5442 5.73562 25.0559 5.53333 24.5467 5.53333Z" fill="white"/>
</svg>
