<svg width="96" height="16" viewBox="0 0 96 16" fill="none" xmlns="http://www.w3.org/2000/svg">
<path d="M90.0423 16L96 0H91.7073L88.091 10.3453L84.4748 0H80L85.9577 16H90.0423Z" fill="white"/>
<path d="M70.3647 10.7101L73.5585 16H78L74.4069 10.2671C76.2783 9.53746 77.4511 7.86971 77.4511 5.44625C77.4511 1.9544 75.1804 0 71.8868 0H65V16H68.9674V10.7101H70.3647ZM68.9674 3.51792H71.4626C72.8848 3.51792 73.5336 4.27362 73.5336 5.44625C73.5336 6.61889 72.8848 7.37459 71.4626 7.37459H68.9674V3.51792Z" fill="white"/>
<path d="M50 0V16H61V12.3779H53.959V9.61564H60.3986V6.09772H53.959V3.59609H61V0H50Z" fill="white"/>
<path d="M46 12.3779H38.4848L45.9209 3.07492V0H33.0791V3.59609H40.5152L33 12.899V16H46V12.3779Z" fill="white"/>
<path d="M18 0V16H29V12.3779H21.959V9.61564H28.3986V6.09772H21.959V3.59609H29V0H18Z" fill="white"/>
<path d="M4.08118 12.3779V3.59609H5.78598C8.42066 3.59609 9.89299 5.2899 9.89299 8C9.89299 10.684 8.42066 12.3779 5.78598 12.3779H4.08118ZM0 16H5.99262C10.9779 16 14 12.873 14 8C14 3.12704 10.9779 0 5.99262 0H0V16Z" fill="white"/>
</svg>
