<svg width="32" height="32" viewBox="0 0 32 32" fill="none" xmlns="http://www.w3.org/2000/svg">
<g clip-path="url(#clip0_1_647)">
<path d="M31.9815 11.8337C32.0474 9.86721 31.6303 7.91543 30.769 6.15958C30.1845 5.43912 29.3735 4.95292 28.4771 4.7857C24.7694 4.43883 19.7131 4.29666 15.9908 4.3598C12.282 4.2938 7.23907 4.43138 3.54446 4.77197C2.81401 4.90896 2.13804 5.26222 1.59902 5.78864C0.399776 6.92896 0.266527 8.87987 0.133278 10.5285C-0.0600509 13.4928 -0.0600509 19.2148 0.133278 22.179C0.171827 23.1069 0.305827 24.028 0.533025 24.9268C0.693691 25.6207 1.01875 26.2627 1.47909 26.7953C2.02178 27.3496 2.7135 27.7229 3.46451 27.8669C6.33725 28.2325 9.23183 28.384 13.459 28.3203C18.1228 28.389 23.5469 28.3203 28.3838 27.9356C29.1533 27.8005 29.8645 27.4266 30.4225 26.8639C30.7956 26.4791 31.0742 26.0082 31.2353 25.4901C31.7119 23.9824 31.9459 22.4045 31.9282 20.8189C31.9815 20.0495 31.9815 12.658 31.9815 11.8337ZM11.646 21.6027V10.4317L22.201 16.0378C19.9891 17.3017 14.4043 20.0639 11.646 21.6027Z" fill="white"/>
</g>
<defs>
<clipPath id="clip0_1_647">
<rect width="32" height="32" fill="white"/>
</clipPath>
</defs>
</svg>
